<mxfile host="app.diagrams.net" modified="2023-06-27T12:51:37.677Z" agent="Mozilla/5.0 (Windows NT 10.0; Win64; x64) AppleWebKit/537.36 (KHTML, like Gecko) Chrome/114.0.0.0 Safari/537.36" etag="eHlh6Vy6BfRkW8hgV_lX" version="21.5.1" type="device">
  <diagram name="Page-1" id="sJGAzZ-h3RuIqJh1l9yl">
    <mxGraphModel dx="1050" dy="562" grid="1" gridSize="10" guides="1" tooltips="1" connect="1" arrows="1" fold="1" page="1" pageScale="1" pageWidth="850" pageHeight="1100" math="0" shadow="0">
      <root>
        <mxCell id="0" />
        <mxCell id="1" parent="0" />
        <mxCell id="8jQafn1LpLjKFLRbBP7f-4" value="" style="edgeStyle=orthogonalEdgeStyle;rounded=0;orthogonalLoop=1;jettySize=auto;html=1;" edge="1" parent="1" source="8jQafn1LpLjKFLRbBP7f-1" target="8jQafn1LpLjKFLRbBP7f-3">
          <mxGeometry relative="1" as="geometry" />
        </mxCell>
        <mxCell id="8jQafn1LpLjKFLRbBP7f-1" value="START" style="ellipse;whiteSpace=wrap;html=1;" vertex="1" parent="1">
          <mxGeometry x="350" y="150" width="120" height="80" as="geometry" />
        </mxCell>
        <mxCell id="8jQafn1LpLjKFLRbBP7f-6" value="" style="edgeStyle=orthogonalEdgeStyle;rounded=0;orthogonalLoop=1;jettySize=auto;html=1;" edge="1" parent="1" source="8jQafn1LpLjKFLRbBP7f-3" target="8jQafn1LpLjKFLRbBP7f-5">
          <mxGeometry relative="1" as="geometry" />
        </mxCell>
        <mxCell id="8jQafn1LpLjKFLRbBP7f-3" value="N&lt;br&gt;HASIL = 1" style="shape=parallelogram;perimeter=parallelogramPerimeter;whiteSpace=wrap;html=1;fixedSize=1;" vertex="1" parent="1">
          <mxGeometry x="350" y="270" width="120" height="60" as="geometry" />
        </mxCell>
        <mxCell id="8jQafn1LpLjKFLRbBP7f-8" value="" style="edgeStyle=orthogonalEdgeStyle;rounded=0;orthogonalLoop=1;jettySize=auto;html=1;" edge="1" parent="1" source="8jQafn1LpLjKFLRbBP7f-5" target="8jQafn1LpLjKFLRbBP7f-7">
          <mxGeometry relative="1" as="geometry" />
        </mxCell>
        <mxCell id="8jQafn1LpLjKFLRbBP7f-11" value="" style="edgeStyle=orthogonalEdgeStyle;rounded=0;orthogonalLoop=1;jettySize=auto;html=1;" edge="1" parent="1" source="8jQafn1LpLjKFLRbBP7f-5" target="8jQafn1LpLjKFLRbBP7f-10">
          <mxGeometry relative="1" as="geometry" />
        </mxCell>
        <mxCell id="8jQafn1LpLjKFLRbBP7f-5" value="N=0?" style="rhombus;whiteSpace=wrap;html=1;" vertex="1" parent="1">
          <mxGeometry x="370" y="350" width="80" height="80" as="geometry" />
        </mxCell>
        <mxCell id="8jQafn1LpLjKFLRbBP7f-24" style="edgeStyle=orthogonalEdgeStyle;rounded=0;orthogonalLoop=1;jettySize=auto;html=1;entryX=0.5;entryY=0;entryDx=0;entryDy=0;" edge="1" parent="1" source="8jQafn1LpLjKFLRbBP7f-7" target="8jQafn1LpLjKFLRbBP7f-23">
          <mxGeometry relative="1" as="geometry" />
        </mxCell>
        <mxCell id="8jQafn1LpLjKFLRbBP7f-7" value="HASIL" style="shape=parallelogram;perimeter=parallelogramPerimeter;whiteSpace=wrap;html=1;fixedSize=1;" vertex="1" parent="1">
          <mxGeometry x="510" y="360" width="120" height="60" as="geometry" />
        </mxCell>
        <mxCell id="8jQafn1LpLjKFLRbBP7f-9" value="YA" style="text;html=1;strokeColor=none;fillColor=none;align=center;verticalAlign=middle;whiteSpace=wrap;rounded=0;" vertex="1" parent="1">
          <mxGeometry x="450" y="360" width="60" height="30" as="geometry" />
        </mxCell>
        <mxCell id="8jQafn1LpLjKFLRbBP7f-13" value="" style="edgeStyle=orthogonalEdgeStyle;rounded=0;orthogonalLoop=1;jettySize=auto;html=1;" edge="1" parent="1" source="8jQafn1LpLjKFLRbBP7f-10" target="8jQafn1LpLjKFLRbBP7f-12">
          <mxGeometry relative="1" as="geometry" />
        </mxCell>
        <mxCell id="8jQafn1LpLjKFLRbBP7f-17" value="" style="edgeStyle=orthogonalEdgeStyle;rounded=0;orthogonalLoop=1;jettySize=auto;html=1;" edge="1" parent="1" source="8jQafn1LpLjKFLRbBP7f-10" target="8jQafn1LpLjKFLRbBP7f-16">
          <mxGeometry relative="1" as="geometry" />
        </mxCell>
        <mxCell id="8jQafn1LpLjKFLRbBP7f-10" value="N=1?" style="rhombus;whiteSpace=wrap;html=1;" vertex="1" parent="1">
          <mxGeometry x="370" y="470" width="80" height="80" as="geometry" />
        </mxCell>
        <mxCell id="8jQafn1LpLjKFLRbBP7f-25" style="edgeStyle=orthogonalEdgeStyle;rounded=0;orthogonalLoop=1;jettySize=auto;html=1;entryX=0.5;entryY=1;entryDx=0;entryDy=0;" edge="1" parent="1" source="8jQafn1LpLjKFLRbBP7f-12" target="8jQafn1LpLjKFLRbBP7f-23">
          <mxGeometry relative="1" as="geometry" />
        </mxCell>
        <mxCell id="8jQafn1LpLjKFLRbBP7f-12" value="HASIL = N" style="shape=parallelogram;perimeter=parallelogramPerimeter;whiteSpace=wrap;html=1;fixedSize=1;" vertex="1" parent="1">
          <mxGeometry x="510" y="480" width="120" height="60" as="geometry" />
        </mxCell>
        <mxCell id="8jQafn1LpLjKFLRbBP7f-14" value="TIDAK" style="text;html=1;strokeColor=none;fillColor=none;align=center;verticalAlign=middle;whiteSpace=wrap;rounded=0;" vertex="1" parent="1">
          <mxGeometry x="410" y="430" width="60" height="30" as="geometry" />
        </mxCell>
        <mxCell id="8jQafn1LpLjKFLRbBP7f-15" value="YA" style="text;html=1;strokeColor=none;fillColor=none;align=center;verticalAlign=middle;whiteSpace=wrap;rounded=0;" vertex="1" parent="1">
          <mxGeometry x="440" y="480" width="60" height="30" as="geometry" />
        </mxCell>
        <mxCell id="8jQafn1LpLjKFLRbBP7f-20" value="" style="edgeStyle=orthogonalEdgeStyle;rounded=0;orthogonalLoop=1;jettySize=auto;html=1;" edge="1" parent="1" source="8jQafn1LpLjKFLRbBP7f-16" target="8jQafn1LpLjKFLRbBP7f-19">
          <mxGeometry relative="1" as="geometry" />
        </mxCell>
        <mxCell id="8jQafn1LpLjKFLRbBP7f-16" value="HASIL X N" style="whiteSpace=wrap;html=1;" vertex="1" parent="1">
          <mxGeometry x="350" y="600" width="120" height="60" as="geometry" />
        </mxCell>
        <mxCell id="8jQafn1LpLjKFLRbBP7f-21" style="edgeStyle=orthogonalEdgeStyle;rounded=0;orthogonalLoop=1;jettySize=auto;html=1;" edge="1" parent="1" source="8jQafn1LpLjKFLRbBP7f-19" target="8jQafn1LpLjKFLRbBP7f-10">
          <mxGeometry relative="1" as="geometry">
            <Array as="points">
              <mxPoint x="210" y="510" />
            </Array>
          </mxGeometry>
        </mxCell>
        <mxCell id="8jQafn1LpLjKFLRbBP7f-19" value="N - 1" style="whiteSpace=wrap;html=1;" vertex="1" parent="1">
          <mxGeometry x="150" y="600" width="120" height="60" as="geometry" />
        </mxCell>
        <mxCell id="8jQafn1LpLjKFLRbBP7f-22" value="TIDAK" style="text;html=1;strokeColor=none;fillColor=none;align=center;verticalAlign=middle;whiteSpace=wrap;rounded=0;" vertex="1" parent="1">
          <mxGeometry x="410" y="550" width="60" height="30" as="geometry" />
        </mxCell>
        <mxCell id="8jQafn1LpLjKFLRbBP7f-23" value="FINISH" style="ellipse;whiteSpace=wrap;html=1;" vertex="1" parent="1">
          <mxGeometry x="660" y="410" width="120" height="80" as="geometry" />
        </mxCell>
      </root>
    </mxGraphModel>
  </diagram>
</mxfile>
